<svg id="visual" viewBox="0 0 900 600" width="900" height="600" xmlns="http://www.w3.org/2000/svg" xmlns:xlink="http://www.w3.org/1999/xlink" version="1.1"><rect x="0" y="0" width="900" height="600" fill="#001220"></rect><defs><linearGradient id="grad1_0" x1="33.3%" y1="0%" x2="100%" y2="100%"><stop offset="20%" stop-color="#331aa5" stop-opacity="1"></stop><stop offset="80%" stop-color="#331aa5" stop-opacity="1"></stop></linearGradient></defs><defs><linearGradient id="grad1_1" x1="33.3%" y1="0%" x2="100%" y2="100%"><stop offset="20%" stop-color="#331aa5" stop-opacity="1"></stop><stop offset="80%" stop-color="#00268a" stop-opacity="1"></stop></linearGradient></defs><defs><linearGradient id="grad1_2" x1="33.3%" y1="0%" x2="100%" y2="100%"><stop offset="20%" stop-color="#002468" stop-opacity="1"></stop><stop offset="80%" stop-color="#00268a" stop-opacity="1"></stop></linearGradient></defs><defs><linearGradient id="grad1_3" x1="33.3%" y1="0%" x2="100%" y2="100%"><stop offset="20%" stop-color="#002468" stop-opacity="1"></stop><stop offset="80%" stop-color="#001d44" stop-opacity="1"></stop></linearGradient></defs><defs><linearGradient id="grad1_4" x1="33.3%" y1="0%" x2="100%" y2="100%"><stop offset="20%" stop-color="#001220" stop-opacity="1"></stop><stop offset="80%" stop-color="#001d44" stop-opacity="1"></stop></linearGradient></defs><defs><linearGradient id="grad2_0" x1="0%" y1="0%" x2="66.7%" y2="100%"><stop offset="20%" stop-color="#331aa5" stop-opacity="1"></stop><stop offset="80%" stop-color="#331aa5" stop-opacity="1"></stop></linearGradient></defs><defs><linearGradient id="grad2_1" x1="0%" y1="0%" x2="66.7%" y2="100%"><stop offset="20%" stop-color="#00268a" stop-opacity="1"></stop><stop offset="80%" stop-color="#331aa5" stop-opacity="1"></stop></linearGradient></defs><defs><linearGradient id="grad2_2" x1="0%" y1="0%" x2="66.7%" y2="100%"><stop offset="20%" stop-color="#00268a" stop-opacity="1"></stop><stop offset="80%" stop-color="#002468" stop-opacity="1"></stop></linearGradient></defs><defs><linearGradient id="grad2_3" x1="0%" y1="0%" x2="66.7%" y2="100%"><stop offset="20%" stop-color="#001d44" stop-opacity="1"></stop><stop offset="80%" stop-color="#002468" stop-opacity="1"></stop></linearGradient></defs><defs><linearGradient id="grad2_4" x1="0%" y1="0%" x2="66.7%" y2="100%"><stop offset="20%" stop-color="#001d44" stop-opacity="1"></stop><stop offset="80%" stop-color="#001220" stop-opacity="1"></stop></linearGradient></defs><g transform="translate(900, 0)"><path d="M0 351.5C-25.1 325.6 -50.2 299.7 -77.6 289.8C-105.1 279.9 -134.8 286.1 -160 277.1C-185.2 268.2 -205.7 244.1 -220.6 220.6C-235.5 197.1 -244.8 174.2 -266.7 154C-288.7 133.8 -323.3 116.2 -339.6 91C-355.8 65.8 -353.7 32.9 -351.5 0L0 0Z" fill="#001831"></path><path d="M0 281.2C-20.1 260.5 -40.2 239.7 -62.1 231.8C-84.1 223.9 -107.9 228.9 -128 221.7C-148.1 214.5 -164.6 195.3 -176.5 176.5C-188.4 157.7 -195.8 139.4 -213.4 123.2C-230.9 107 -258.7 93 -271.7 72.8C-284.6 52.6 -282.9 26.3 -281.2 0L0 0Z" fill="#002156"></path><path d="M0 210.9C-15.1 195.4 -30.1 179.8 -46.6 173.9C-63 167.9 -80.9 171.6 -96 166.3C-111.1 160.9 -123.4 146.5 -132.4 132.4C-141.3 118.3 -146.9 104.5 -160 92.4C-173.2 80.3 -194 69.7 -203.7 54.6C-213.5 39.5 -212.2 19.7 -210.9 0L0 0Z" fill="#00267a"></path><path d="M0 140.6C-10 130.2 -20.1 119.9 -31.1 115.9C-42 112 -53.9 114.4 -64 110.9C-74.1 107.3 -82.3 97.6 -88.2 88.2C-94.2 78.9 -97.9 69.7 -106.7 61.6C-115.5 53.5 -129.3 46.5 -135.8 36.4C-142.3 26.3 -141.5 13.2 -140.6 0L0 0Z" fill="#002399"></path><path d="M0 70.3C-5 65.1 -10 59.9 -15.5 58C-21 56 -27 57.2 -32 55.4C-37 53.6 -41.1 48.8 -44.1 44.1C-47.1 39.4 -49 34.8 -53.3 30.8C-57.7 26.8 -64.7 23.2 -67.9 18.2C-71.2 13.2 -70.7 6.6 -70.3 0L0 0Z" fill="#331aa5"></path></g><g transform="translate(0, 600)"><path d="M0 -351.5C23.4 -323.5 46.7 -295.4 77.9 -290.7C109.1 -286.1 148.1 -304.8 169.5 -293.6C190.9 -282.3 194.5 -241.1 219.9 -219.9C245.3 -198.7 292.4 -197.5 304.4 -175.8C316.5 -154.1 293.6 -111.9 295.6 -79.2C297.6 -46.5 324.6 -23.2 351.5 0L0 0Z" fill="#001831"></path><path d="M0 -281.2C18.7 -258.8 37.4 -236.3 62.3 -232.6C87.3 -228.9 118.5 -243.9 135.6 -234.9C152.7 -225.9 155.6 -192.9 175.9 -175.9C196.2 -159 233.9 -158 243.6 -140.6C253.2 -123.3 234.8 -89.5 236.5 -63.4C238.1 -37.2 259.7 -18.6 281.2 0L0 0Z" fill="#002156"></path><path d="M0 -210.9C14 -194.1 28 -177.2 46.7 -174.4C65.5 -171.6 88.9 -182.9 101.7 -176.1C114.5 -169.4 116.7 -144.7 131.9 -131.9C147.2 -119.2 175.4 -118.5 182.7 -105.5C189.9 -92.4 176.1 -67.1 177.3 -47.5C178.6 -27.9 194.7 -13.9 210.9 0L0 0Z" fill="#00267a"></path><path d="M0 -140.6C9.3 -129.4 18.7 -118.2 31.2 -116.3C43.6 -114.4 59.3 -121.9 67.8 -117.4C76.3 -112.9 77.8 -96.5 88 -88C98.1 -79.5 117 -79 121.8 -70.3C126.6 -61.6 117.4 -44.8 118.2 -31.7C119 -18.6 129.8 -9.3 140.6 0L0 0Z" fill="#002399"></path><path d="M0 -70.3C4.7 -64.7 9.3 -59.1 15.6 -58.1C21.8 -57.2 29.6 -61 33.9 -58.7C38.2 -56.5 38.9 -48.2 44 -44C49.1 -39.7 58.5 -39.5 60.9 -35.2C63.3 -30.8 58.7 -22.4 59.1 -15.8C59.5 -9.3 64.9 -4.6 70.3 0L0 0Z" fill="#331aa5"></path></g></svg>