<svg xmlns="http://www.w3.org/2000/svg" version="1.1" xmlns:xlink="http://www.w3.org/1999/xlink" xmlns:svgjs="http://svgjs.dev/svgjs" viewBox="0 0 800 800" opacity="0.47"><defs><linearGradient x1="50%" y1="0%" x2="50%" y2="100%" id="ssscribble-grad"><stop stop-color="hsl(206, 75%, 49%)" stop-opacity="1" offset="0%"></stop><stop stop-color="hsl(331, 90%, 56%)" stop-opacity="1" offset="100%"></stop></linearGradient></defs><g fill="none" stroke-width="1" stroke="url(#ssscribble-grad)" stroke-linecap="round"><path d="M857.87 266.77C896.89 291.07 907.53 319.65 889.87 352.84 849.08 387.31 790.8 428.53 724.89 477.17 658.9 528.15 600.71 586.23 555.18 648.42 524.28 706.55 507.76 760.01 502.68 800.62 508.93 822.42 519.9 820.89 531.21 793.17 545.74 748.16 555.7 689.5 559.26 630.9 562.27 592.38 558.11 582.19 546.84 608.54 535.06 669.48 516.95 751.35 492.65 832.67 468.35 891.04 439.01 907.45 404.96 880.23 370.4 818.66 330.36 737.79 285.23 657.16 239.56 590.97 189.58 550.31 137.6 536.93 88.84 550.01 42.98 579.56 4.87 615.02 -21.88 654.67 -34.18 685.37 -28.58 703.23 -8.35 712.72 28.03 708.61 76.21 694.04 124.31 673.35 168.76 647.28 200.17 619.61 208.45 590.33 192.89 562.64 153.87 538.34 95.9 514.04 33.39 494.28 -22.01 477.73 -65.12 459.57 -85.49 441.43 -81.57 420.02 -56.44 392.47 -12.43 356.57 43.22 309.62 105.83 254.32 168.31 188.73 225.55 117.23 277.02 49.92 319.33 -8.44 352.86 -46.82 379.05 -58.76 399.32 -39.89 416.32 8.47 429.58 71.28 443.17 138.32 459.16 190.52 474.27 208.37 493.56 187.05 517.86 128.7 542.16 47.37 570.32 -29.57 601.04 -81.14 630.88 -98.12 661.49 -74.11 690.34 -17.79 715.46 58.62 735.22 139.08 746.48 209.39 750.4 262.42 742.99 292.76 723.37 302.81 697.99 294.05 664.31 275.48 627.01 254.8 585.54 221.03 598.09 198.1 667.66 210.95 732.44 223.59 799.87 242.46 857.85 266.76Q857.87 266.77 857.87 266.77" opacity="0.15"></path><path d="M813.87 395.99C849.33 417.25 863.06 445.57 854.73 479.99 827.65 514.26 784.31 554.05 731.08 597.36 672.95 638.35 615.8 679.34 564.38 716 520.42 744 486.29 761.08 461.73 762.78 446.45 750.69 438.04 721.92 433.74 678.89 435.18 609.52 433.24 540.59 422.2 583.72 413.25 644.61 398.38 718 377.12 788.67 355.85 841.66 329.2 863.03 298.05 850.45 267.11 808.83 232.2 745.9 194.85 674.55 159.09 604.73 123.01 547.03 89.33 506.95 49.8 484.92 27.3 527.07 53.58 560.87 82.86 583.21 120.95 597.81 163.49 603.71 216.75 604.84 242.35 570.44 197.87 540.6 147.85 519.34 93.69 494.97 43.38 467.19 -0.2 438.33 -28.31 404.2 -38.59 363.95 -32.84 321.2 -10.18 271.58 25.39 216.48 70.76 162.06 121.65 107.22 173.5 57.72 225.88 20.05 274.46 -2.31 317.61 -3.84 357.39 14.08 391.67 52.71 421.12 106.94 447.94 162.7 471.88 213.54 494.07 246.96 515.44 251.35 536.57 225.68 557.84 172.7 579.1 102.03 599.49 32.95 618.22 -19.75 636.13 -49.4 650.87 -47.86 660.9 -17.88 668.3 34.25 669.05 99.82 662.04 168.08 651.66 233.25 633.61 287.23 609.1 327.19 546.62 362.4 574.96 350.56 646.85 355.84 705.36 361.52 763.83 374.71 813.85 395.98Q813.87 395.99 813.87 395.99" opacity="0.76"></path><path d="M769.87 528.74C801.37 546.96 816.85 568.4 815.89 591.92 800.74 614.59 771.85 637.63 733.04 658.8 687.38 676.54 638.52 689.2 590.26 694.12 543.74 692.54 501.96 680.83 466.13 658.35 435.58 630.84 410.89 595.96 391.09 557.76 369.25 512.77 336.71 507.06 319.29 563.46 307.53 620.84 292.78 684.62 274.55 744.67 256.33 791.67 235.49 815.83 212.88 814.92 190.77 791.49 167.92 748.42 145.81 693.26 125.78 632.01 108.5 572.39 95.88 520.24 87.58 477.62 86.11 447.37 92.78 428.73 104.72 421.15 124.89 421.31 152.44 425.57 181.71 435.23 214.23 444.18 246.53 449.82 281.24 457.35 282.96 442.71 241.87 418.81 199.64 400.59 153.99 376.35 110.1 346.83 69.04 317.31 37.66 282.7 18.25 244.31 9.41 207.09 13.7 168.12 29.42 130.37 54.31 98.02 86.88 71.69 123.98 55.38 164.99 50.12 206.67 58.76 246.8 82.4 287.08 115.57 324.26 158.84 357.54 206.73 389.99 248.53 418.79 281.24 443.84 297.64 468.53 291.53 490.11 263.69 508.33 216.7 526.56 156.65 540.58 96.56 550.26 46.2 561.76 2.01 557.8 47.78 542.03 119.92 529.99 177.1 514.47 233.59 497.35 284.98 484.14 331.35 473.17 369.23 467.26 398.9 470.51 422.08 482.56 439.43 504.76 453.27 537.52 463.69 579.26 473.8 627.36 485.5 678.28 496.36 727.62 510.5 769.85 528.73Q769.87 528.74 769.87 528.74" opacity="0.54"></path><path d="M725.87 547.9C770.77 578.28 768.56 598.25 726.95 601.92 659.32 598.51 579.78 570.41 505.57 520.99 437.39 478.23 383.08 444.91 341.47 447.97 305.34 502.48 273.48 598.09 243.1 700.67 212.72 767.87 186.71 765.54 170.2 704.81 159.17 610.14 166.07 512.63 194.44 436.72 228.84 383.68 276.16 354.46 321.53 336.06 340.87 326.77 330.77 310.8 285.87 280.42 211.6 250.05 138.51 208.14 87.51 164.8 59.51 130.55 66.96 112.36 100.42 125.58 151.26 161.68 210.23 226.96 264.71 299.37 321.08 337.85 367.03 327.88 397.41 260.7 433.76 116.45 428.37 94.51 411.56 209.86 417.91 299.09 442.66 374.59 492.93 430.65 566.18 479.62 651.58 517.52 725.85 547.89Q725.87 547.9 725.87 547.9" opacity="0.27"></path><path d="M681.87 436.57C720.89 460.87 729.07 467.02 709.73 456.86 670.48 447.16 616.57 424.86 559.53 399.52 499.76 389.66 445.65 396.33 401.51 430.38 359 492.76 324.89 575.35 300.59 656.67 276.28 715.04 264.1 729.04 264.5 701.75 266.52 644.46 282.7 570.82 310.62 499.28 335.82 430.86 363.96 376.2 385.39 335.71 386.92 300.41 368.89 271.83 329.87 247.53 271.89 223.22 213.43 205.51 166.61 198.7 129.39 197.07 114.16 213.81 118.71 250.37 135.42 290.06 163.91 337.92 195.96 377.41 231.3 386.89 263.65 363.05 287.95 304.7 312.25 223.37 326.21 150.62 332.98 106.04 343.05 89.8 352.48 108.9 367.61 150.61 394.91 207.79 435.91 268.03 490.93 319.84 555.57 372.11 623.87 412.26 681.85 436.56Q681.87 436.57 681.87 436.57" opacity="0.59"></path><path d="M637.87 292.97C676.06 315.3 650.11 326.2 603.29 335.42 565.34 354.24 527.33 385.8 494.04 431.64 460.17 488.45 432.65 552.62 414.42 612.67 392.59 670.65 397.76 637.47 416.61 573.4 425.87 522.93 433.89 475.27 436.03 436.05 426.15 397.17 405.37 367.38 373.87 349.15 331.64 330.92 289.03 325.99 252.09 333.29 217.15 340.92 193.69 360.14 182.57 386.73 179.12 417.24 215.21 410.34 242 348.67 260.23 288.62 277.81 231.84 295.69 188.39 315.7 155.9 339.68 143.67 369.25 148.74 404.25 164.86 447.04 190.39 495.33 217.86 545.62 248.21 595.62 274.74 637.85 292.96Q637.87 292.97 637.87 292.97" opacity="0.64"></path><path d="M593.87 243.8C632.89 268.1 636.1 298.99 615.1 343.84 582.25 403.37 544.38 487.35 520.08 568.67 495.78 627.05 489.64 636.14 490.65 610.75 479.8 566.96 456.89 519.93 417.87 495.63 359.89 471.33 309.53 474.35 282.5 486.3 259.75 479.84 261.31 451.05 285.61 392.67 309.91 311.35 352.35 247.07 406.95 219.39 465.83 206.38 535.89 219.49 593.87 243.8Q593.87 243.8 593.87 243.8" opacity="0.81"></path></g></svg>