<svg id="visual" viewBox="0 0 900 600" width="900" height="600" xmlns="http://www.w3.org/2000/svg" xmlns:xlink="http://www.w3.org/1999/xlink" version="1.1"><rect x="0" y="0" width="900" height="600" fill="#002233"></rect><path d="M301 0L338.2 25C375.3 50 449.7 100 458.7 150C467.7 200 411.3 250 402 300C392.7 350 430.3 400 392.3 450C354.3 500 240.7 550 183.8 575L127 600L0 600L0 575C0 550 0 500 0 450C0 400 0 350 0 300C0 250 0 200 0 150C0 100 0 50 0 25L0 0Z" fill="#0066FF" stroke-linecap="round" stroke-linejoin="miter"></path></svg>